
<svg xmlns="http://www.w3.org/2000/svg" width="980" height="360" viewBox="0 0 980 360">
  <rect width="100%" height="100%" fill="#f3efe3" />
  <text x="40" y="34" font-family="Iowan Old Style, Palatino Linotype, serif" font-size="28" fill="#2e2218">TokenFingerprint Samples</text>
  <text x="40" y="56" font-family="Avenir Next, Segoe UI, sans-serif" font-size="15" fill="#6f5a47">Three deterministic public ballot identities rendered as simple human-checkable patterns.</text>
  
    <g>
      <rect x="40" y="70" width="280" height="220" rx="18" fill="#fffaf1" stroke="#d8c7b2" />
      <text x="64" y="104" font-family="Avenir Next, Segoe UI, sans-serif" font-size="14" fill="#8a4b2b" font-weight="700">TOKEN FINGERPRINT</text>
      <text x="64" y="126" font-family="Iowan Old Style, Palatino Linotype, serif" font-size="28" fill="#2e2218">YES</text>
      <rect x="64" y="138" width="118" height="118" rx="12" fill="#f4efe6" stroke="#e2d3bf" />
      <rect x="72" y="146" width="18" height="18" fill="#8a4b2b" /><rect x="93" y="146" width="18" height="18" fill="#8a4b2b" /><rect x="114" y="146" width="18" height="18" fill="#efe6d6" /><rect x="135" y="146" width="18" height="18" fill="#8a4b2b" /><rect x="156" y="146" width="18" height="18" fill="#8a4b2b" /><rect x="72" y="167" width="18" height="18" fill="#8a4b2b" /><rect x="93" y="167" width="18" height="18" fill="#efe6d6" /><rect x="114" y="167" width="18" height="18" fill="#efe6d6" /><rect x="135" y="167" width="18" height="18" fill="#efe6d6" /><rect x="156" y="167" width="18" height="18" fill="#8a4b2b" /><rect x="72" y="188" width="18" height="18" fill="#efe6d6" /><rect x="93" y="188" width="18" height="18" fill="#efe6d6" /><rect x="114" y="188" width="18" height="18" fill="#8a4b2b" /><rect x="135" y="188" width="18" height="18" fill="#efe6d6" /><rect x="156" y="188" width="18" height="18" fill="#efe6d6" /><rect x="72" y="209" width="18" height="18" fill="#efe6d6" /><rect x="93" y="209" width="18" height="18" fill="#8a4b2b" /><rect x="114" y="209" width="18" height="18" fill="#efe6d6" /><rect x="135" y="209" width="18" height="18" fill="#8a4b2b" /><rect x="156" y="209" width="18" height="18" fill="#efe6d6" /><rect x="72" y="230" width="18" height="18" fill="#efe6d6" /><rect x="93" y="230" width="18" height="18" fill="#8a4b2b" /><rect x="114" y="230" width="18" height="18" fill="#efe6d6" /><rect x="135" y="230" width="18" height="18" fill="#8a4b2b" /><rect x="156" y="230" width="18" height="18" fill="#efe6d6" />
      <text x="64" y="266" font-family="SFMono-Regular, JetBrains Mono, monospace" font-size="15" fill="#5f2f19">6ab4d7f1c925be102cd3</text>
      <text x="64" y="284" font-family="Avenir Next, Segoe UI, sans-serif" font-size="13" fill="#6f5a47">Simple UI sample exported from TokenFingerprint</text>
    </g>
    <g>
      <rect x="340" y="70" width="280" height="220" rx="18" fill="#fffaf1" stroke="#d8c7b2" />
      <text x="364" y="104" font-family="Avenir Next, Segoe UI, sans-serif" font-size="14" fill="#8a4b2b" font-weight="700">TOKEN FINGERPRINT</text>
      <text x="364" y="126" font-family="Iowan Old Style, Palatino Linotype, serif" font-size="28" fill="#2e2218">NO</text>
      <rect x="364" y="138" width="118" height="118" rx="12" fill="#f4efe6" stroke="#e2d3bf" />
      <rect x="372" y="146" width="18" height="18" fill="#8a4b2b" /><rect x="393" y="146" width="18" height="18" fill="#8a4b2b" /><rect x="414" y="146" width="18" height="18" fill="#efe6d6" /><rect x="435" y="146" width="18" height="18" fill="#8a4b2b" /><rect x="456" y="146" width="18" height="18" fill="#8a4b2b" /><rect x="372" y="167" width="18" height="18" fill="#efe6d6" /><rect x="393" y="167" width="18" height="18" fill="#efe6d6" /><rect x="414" y="167" width="18" height="18" fill="#efe6d6" /><rect x="435" y="167" width="18" height="18" fill="#efe6d6" /><rect x="456" y="167" width="18" height="18" fill="#efe6d6" /><rect x="372" y="188" width="18" height="18" fill="#8a4b2b" /><rect x="393" y="188" width="18" height="18" fill="#efe6d6" /><rect x="414" y="188" width="18" height="18" fill="#8a4b2b" /><rect x="435" y="188" width="18" height="18" fill="#efe6d6" /><rect x="456" y="188" width="18" height="18" fill="#8a4b2b" /><rect x="372" y="209" width="18" height="18" fill="#8a4b2b" /><rect x="393" y="209" width="18" height="18" fill="#8a4b2b" /><rect x="414" y="209" width="18" height="18" fill="#8a4b2b" /><rect x="435" y="209" width="18" height="18" fill="#8a4b2b" /><rect x="456" y="209" width="18" height="18" fill="#8a4b2b" /><rect x="372" y="230" width="18" height="18" fill="#efe6d6" /><rect x="393" y="230" width="18" height="18" fill="#efe6d6" /><rect x="414" y="230" width="18" height="18" fill="#efe6d6" /><rect x="435" y="230" width="18" height="18" fill="#efe6d6" /><rect x="456" y="230" width="18" height="18" fill="#efe6d6" />
      <text x="364" y="266" font-family="SFMono-Regular, JetBrains Mono, monospace" font-size="15" fill="#5f2f19">2cf99187ee4ab35190fd</text>
      <text x="364" y="284" font-family="Avenir Next, Segoe UI, sans-serif" font-size="13" fill="#6f5a47">Simple UI sample exported from TokenFingerprint</text>
    </g>
    <g>
      <rect x="640" y="70" width="280" height="220" rx="18" fill="#fffaf1" stroke="#d8c7b2" />
      <text x="664" y="104" font-family="Avenir Next, Segoe UI, sans-serif" font-size="14" fill="#8a4b2b" font-weight="700">TOKEN FINGERPRINT</text>
      <text x="664" y="126" font-family="Iowan Old Style, Palatino Linotype, serif" font-size="28" fill="#2e2218">YES</text>
      <rect x="664" y="138" width="118" height="118" rx="12" fill="#f4efe6" stroke="#e2d3bf" />
      <rect x="672" y="146" width="18" height="18" fill="#8a4b2b" /><rect x="693" y="146" width="18" height="18" fill="#efe6d6" /><rect x="714" y="146" width="18" height="18" fill="#efe6d6" /><rect x="735" y="146" width="18" height="18" fill="#efe6d6" /><rect x="756" y="146" width="18" height="18" fill="#8a4b2b" /><rect x="672" y="167" width="18" height="18" fill="#efe6d6" /><rect x="693" y="167" width="18" height="18" fill="#efe6d6" /><rect x="714" y="167" width="18" height="18" fill="#8a4b2b" /><rect x="735" y="167" width="18" height="18" fill="#efe6d6" /><rect x="756" y="167" width="18" height="18" fill="#efe6d6" /><rect x="672" y="188" width="18" height="18" fill="#8a4b2b" /><rect x="693" y="188" width="18" height="18" fill="#8a4b2b" /><rect x="714" y="188" width="18" height="18" fill="#8a4b2b" /><rect x="735" y="188" width="18" height="18" fill="#8a4b2b" /><rect x="756" y="188" width="18" height="18" fill="#8a4b2b" /><rect x="672" y="209" width="18" height="18" fill="#efe6d6" /><rect x="693" y="209" width="18" height="18" fill="#efe6d6" /><rect x="714" y="209" width="18" height="18" fill="#efe6d6" /><rect x="735" y="209" width="18" height="18" fill="#efe6d6" /><rect x="756" y="209" width="18" height="18" fill="#efe6d6" /><rect x="672" y="230" width="18" height="18" fill="#efe6d6" /><rect x="693" y="230" width="18" height="18" fill="#8a4b2b" /><rect x="714" y="230" width="18" height="18" fill="#8a4b2b" /><rect x="735" y="230" width="18" height="18" fill="#8a4b2b" /><rect x="756" y="230" width="18" height="18" fill="#efe6d6" />
      <text x="664" y="266" font-family="SFMono-Regular, JetBrains Mono, monospace" font-size="15" fill="#5f2f19">a1d93e28c77fb6405e12</text>
      <text x="664" y="284" font-family="Avenir Next, Segoe UI, sans-serif" font-size="13" fill="#6f5a47">Simple UI sample exported from TokenFingerprint</text>
    </g>
</svg>